<?xml version="1.0" encoding="utf-8"?>
<!-- Generator: Adobe Illustrator 27.3.1, SVG Export Plug-In . SVG Version: 6.00 Build 0)  -->
<svg version="1.1" id="Layer_1" xmlns="http://www.w3.org/2000/svg" xmlns:xlink="http://www.w3.org/1999/xlink" x="0px" y="0px"
	 viewBox="0 0 100 100" style="enable-background:new 0 0 100 100;" xml:space="preserve">
<style type="text/css">
	.st0{clip-path:url(#SVGID_00000145741327496097068160000005989911038804337816_);}
	.st1{fill:#FFFFFF;}
	.st2{fill:#44A8FE;}
</style>
<g>
	<defs>
		<path id="SVGID_1_" d="M10,0h80c5.5,0,10,4.5,10,10v80c0,5.5-4.5,10-10,10H10c-5.5,0-10-4.5-10-10V10C0,4.5,4.5,0,10,0z"/>
	</defs>
	<clipPath id="SVGID_00000139292808181895705340000007759703707442203323_">
		<use xlink:href="#SVGID_1_"  style="overflow:visible;"/>
	</clipPath>
	<g style="clip-path:url(#SVGID_00000139292808181895705340000007759703707442203323_);">
		<path class="st1" d="M26,0h48c14.4,0,26,11.6,26,26v48c0,14.4-11.6,26-26,26H26C11.6,100,0,88.4,0,74V26C0,11.6,11.6,0,26,0z"/>
		<g id="Layer_2_00000103964378030847820140000013294069340957233061_">
			<path class="st2" d="M76.6,13.6l-0.5,1.1l-0.5,1.1l-1,2.3l-1,2.3l-0.9,2.3c-0.6,1.5-1.2,3.1-1.9,4.7l-1.8,4.7
				c-2.4,6.2-4.7,12.5-7,18.8l-1.7,4.7l-1.6,4.7c-0.5,1.6-1,3.2-1.6,4.8l-0.8,2.4l-0.4,1.2L55.7,70c-2,6.4-3.9,12.8-5.6,19.2l0,0.1
				c-0.5,1.9-2.5,3.1-4.5,2.6c-1.9-0.5-3.1-2.5-2.6-4.5v0l1.3-4.9l0.3-1.2c0.1-0.4,0.2-0.8,0.3-1.2l0.7-2.4l0.7-2.4
				c0.2-0.8,0.5-1.6,0.7-2.4l1.5-4.9c2-6.5,4.1-12.9,6.3-19.3c1.1-3.1,2.2-6.2,3.3-9.3c-1.1,1.1-2.2,2.3-3.3,3.3
				c-1.5,1.4-3,2.8-4.6,4c-1.6,1.3-3.3,2.5-5.2,3.6c-0.2,0.1-0.5,0.3-0.7,0.4c-0.2,0.1-0.5,0.3-0.7,0.4l-0.7,0.4l-0.7,0.3
				c-0.1,0.1-0.2,0.1-0.4,0.2L41.6,52c-0.2,0.1-0.5,0.2-0.8,0.3l-0.8,0.3c-0.3,0.1-0.5,0.2-0.8,0.3l-0.4,0.1c-0.1,0-0.3,0.1-0.4,0.1
				c-0.3,0.1-0.5,0.2-0.8,0.2l-0.8,0.2c-0.1,0-0.3,0.1-0.4,0.1l-0.4,0.1l-0.4,0.1L35.2,54l-0.4,0.1c-0.1,0-0.3,0-0.4,0.1l-0.9,0.1
				l-0.6,0.1c-1.6,0.2-3.2,0.5-4.6,1.1c-1.4,0.6-2.7,1.5-3.9,2.5c-1.2,1.1-2.2,2.4-3,3.9c-0.8,1.5-1.5,3.1-2,4.7
				c-0.5,1.7-0.9,3.4-1.2,5.2c-0.1,0.9-0.2,1.8-0.3,2.7c0,0.5-0.1,0.9-0.1,1.4c0,0.2,0,0.5,0,0.7v0.3v0.3v0.1c0,1.3-1,2.3-2.2,2.3
				c-1.2,0-2.2-0.9-2.3-2.1l0-0.4l0-0.4c0-0.3,0-0.5,0-0.8c0-0.5,0-1,0-1.5c0-1,0-2,0.1-3.1c0.1-1,0.2-2,0.3-3.1
				c0.2-1,0.3-2,0.6-3.1c0.5-2,1.2-4,2.1-6c0.9-1.9,2.2-3.8,3.7-5.5c1.5-1.7,3.4-3.1,5.5-4.1c1-0.5,2.1-1,3.2-1.3
				c1.1-0.3,2.2-0.6,3.3-0.8l0.8-0.1l0.6-0.1c0.1,0,0.2,0,0.3-0.1l0.3-0.1l0.3-0.1l0.3-0.1l0.3-0.1c0.1,0,0.2-0.1,0.3-0.1l0.6-0.2
				c0.2-0.1,0.4-0.1,0.6-0.2c0.1,0,0.2-0.1,0.3-0.1l0.3-0.1c0.7-0.3,1.5-0.7,2.2-1.1c0.7-0.4,1.5-0.9,2.2-1.4c1.4-1,2.8-2,4.2-3.2
				l0.5-0.4l0.5-0.4l0.3-0.2l0.2-0.2l0.5-0.5c0.7-0.6,1.3-1.2,2-1.9c0.6-0.6,1.3-1.3,1.9-2c0.6-0.7,1.3-1.3,1.9-2
				c1.2-1.4,2.4-2.8,3.6-4.2c2.3-2.9,4.6-5.9,6.7-9c1.1-1.5,2.1-3.1,3.1-4.7c0.5-0.8,1-1.6,1.5-2.4l0.7-1.2l0.7-1.2l0,0l0-0.1
				c1.1-1.9,3.6-2.6,5.5-1.5C76.7,9.6,77.4,11.8,76.6,13.6z"/>
		</g>
	</g>
</g>
</svg>
