<?xml version="1.0" encoding="utf-8"?>
<!-- Generator: Adobe Illustrator 27.3.1, SVG Export Plug-In . SVG Version: 6.00 Build 0)  -->
<svg version="1.1" id="Layer_1" xmlns="http://www.w3.org/2000/svg" xmlns:xlink="http://www.w3.org/1999/xlink" x="0px" y="0px"
	 viewBox="0 0 1090.8 1080" style="enable-background:new 0 0 1090.8 1080;" xml:space="preserve">
<style type="text/css">
	.st0{display:none;}
	.st1{fill:#44A8FE;}
</style>
<g id="Layer_1_00000104687714114055620280000011366793496520688820_" class="st0">
	
		<image style="display:inline;overflow:visible;enable-background:new    ;" width="925" height="919" xlink:href="37CFB632.jpeg"  transform="matrix(0.9989 0 0 0.9989 42.3917 80.6226)">
	</image>
</g>
<g id="Layer_2_00000103964378030847820140000013294069340957233061_">
	<path class="st1" d="M894.9,71.8l-6.2,14.6l-6.2,14.8L870.1,131l-12.3,29.8l-12.2,29.9c-8.1,19.9-15.9,40-24,60l-23.5,60.1
		c-31.1,80.3-61,161.1-89.9,242.1l-21.5,60.9l-20.8,61.1c-7,20.3-13.5,40.8-20.2,61.2l-10,30.7l-5,15.3l-4.8,15.4
		c-26.1,81.9-50,164.4-72.2,247.1l-0.2,0.7c-6.7,25-32.4,39.8-57.4,33.1c-25-6.7-39.8-32.4-33.1-57.4l0-0.1l17.1-63.3l4.3-15.8
		c1.5-5.3,2.8-10.6,4.4-15.8l9.1-31.4l9.1-31.4c3-10.5,6-21,9.2-31.4l19-62.5c25.9-83.2,52.9-166,81.3-248.3
		c13.7-40,27.7-79.8,42-119.6c-13.7,14.7-27.9,29-42.6,43.1c-18.8,18-38.5,35.5-59.3,52c-20.7,16.5-42.8,32-66.3,45.9
		c-2.9,1.8-6,3.4-8.9,5.1c-3,1.7-6,3.4-9.1,5l-9.2,4.8l-9.4,4.5c-1.6,0.7-3.1,1.5-4.7,2.2l-4.8,2.1c-3.2,1.4-6.4,2.8-9.7,4.2
		l-9.9,3.9c-3.3,1.3-6.7,2.4-10.1,3.6l-5.1,1.8c-1.7,0.6-3.4,1.1-5.1,1.6c-3.4,1-6.8,2.1-10.4,3.1l-10.6,2.7
		c-1.8,0.5-3.6,0.9-5.3,1.2l-5.4,1.1l-5.4,1.1l-5.5,0.9l-5.5,0.9c-1.8,0.3-3.6,0.6-5.5,0.7l-11.1,1.2l-8,0.7
		c-20.8,2-40.9,6.7-59.4,14.7c-18.5,7.9-35.4,18.9-50.3,32.8c-15,13.9-27.8,30.8-38.7,49.6c-10.9,18.8-19.5,39.5-26.3,61.1
		c-6.8,21.7-11.7,44.3-15,67.3c-1.6,11.5-2.9,23.1-3.7,34.7c-0.4,5.8-0.7,11.6-0.9,17.4c-0.1,2.9-0.1,5.8-0.2,8.6v4.2l0,3.7v1.6
		c0.2,16.2-12.8,29.4-28.9,29.5c-15.4,0.1-28.1-11.7-29.4-26.8l-0.4-5.5l-0.3-5.1c-0.2-3.3-0.3-6.7-0.5-10
		c-0.3-6.6-0.3-13.2-0.3-19.8c0-13.1,0.6-26.3,1.5-39.4c1-13.1,2.4-26.3,4.4-39.4c2-13.1,4.5-26.2,7.6-39.3
		c6.3-26.1,15-52.1,27.2-77.3c12.2-25.1,28-49.3,47.9-70.6c19.9-21.3,43.9-39.5,70.2-52.9c13.1-6.7,26.7-12.4,40.6-16.8
		s27.9-7.9,42-10.5l10.4-1.8l7.3-1.4c1.2-0.2,2.4-0.5,3.6-0.8l3.6-0.9l3.6-0.9l3.6-1.1l3.6-1.1c1.2-0.3,2.4-0.7,3.6-1.2l7.3-2.5
		c2.4-0.9,4.8-1.9,7.2-2.9c1.2-0.5,2.4-0.9,3.6-1.5l3.6-1.6c9.6-4.2,19.2-9.2,28.6-14.5c9.4-5.3,18.8-11.3,28-17.4
		c18.4-12.5,36.5-26.3,54-41.2l6.6-5.6l6.5-5.7l3.3-2.8l3.2-2.9l6.5-5.8c8.5-7.9,17-15.9,25.3-24.3c8.3-8.2,16.5-16.7,24.7-25.3
		c8-8.6,16.1-17.3,24-26.2c15.8-17.7,31.2-36,46.2-54.6c30.1-37.2,58.8-76.1,86.3-115.7c13.7-19.8,27.3-39.8,40.4-60.1
		c6.6-10.1,13.1-20.2,19.5-30.4l9.5-15.3l9.1-14.9l0,0l0.4-0.7c14.3-24.7,46-33.1,70.6-18.8C896.1,20.2,905,48.2,894.9,71.8z"/>
</g>
</svg>
